<?xml version="1.0" encoding="utf-8"?>
<!-- Generator: Adobe Illustrator 16.0.4, SVG Export Plug-In . SVG Version: 6.00 Build 0)  -->
<!DOCTYPE svg PUBLIC "-//W3C//DTD SVG 1.1//EN" "http://www.w3.org/Graphics/SVG/1.1/DTD/svg11.dtd">
<svg version="1.1" xmlns="http://www.w3.org/2000/svg" xmlns:xlink="http://www.w3.org/1999/xlink" x="0px" y="0px" width="225px"
     height="140px" viewBox="0 0 225 140" enable-background="new 0 0 225 140" xml:space="preserve">
<g id="Stitek__x2B__MU">
    <g>
        <rect fill="#F2D45C" width="54" height="134"/>
    </g>
    <path fill="#FFFFFF" d="M22.172,113.879V97.833c0.013,0.071,0.229,1.023,3.293,12.815c0.148,0.561,0.617,1.175,1.544,1.175
        c0.958,0,1.378-0.54,1.548-1.175c0.939-3.641,3.268-12.769,3.268-12.769v16c-1.484,0.496-3.106,0.769-4.824,0.769
        C25.285,114.648,23.654,114.375,22.172,113.879z M42.277,76.192c-1.571,0-2.846,1.255-2.846,2.806v25.393
        c0,2.304-0.854,4.378-2.314,6.056V78.951c0-1.358-1.01-2.508-2.375-2.697c-1.354-0.198-2.713,0.592-3.041,1.932
        C27.047,97.051,27.003,97.2,27.003,97.2s-0.03-0.148-4.707-19.018c-0.335-1.336-1.681-2.126-3.038-1.928
        c-1.365,0.189-2.369,1.339-2.369,2.697v31.495c-1.465-1.678-2.326-3.752-2.326-6.056V78.998c0-1.551-1.271-2.806-2.84-2.806
        C10.15,76.192,9,77.447,9,78.998v25.393c0,8.934,7.943,15.179,18,15.179c10.056,0,18-6.245,18-15.179V78.998
        C45,77.447,43.846,76.192,42.277,76.192z"/>
</g>
<g id="Text_EN">
    <g>
        <g>
            <g>
                <path fill="#002776" d="M71.919,76.731h7.276l-0.02,2.09h-4.825l-0.019,3.381h4.787l-0.02,2.09h-4.806l-0.019,5.585h-2.489
                    L71.919,76.731z"/>
                <path fill="#002776" d="M81.717,90.143l-2.26-0.684l5.053-12.728h2.242l4.691,12.728l-2.374,0.684l-1.292-3.762h-4.578
                    L81.717,90.143z M85.593,79.276h-0.038l-1.652,5.129h3.211L85.593,79.276z"/>
                <path fill="#002776" d="M99.098,88.053c1.691,0,2.508-0.399,3.306-0.855l0.969,1.672c-1.216,0.855-2.679,1.273-4.179,1.273
                    c-3.914,0-6.82-2.869-6.82-6.801c0-4.046,2.83-6.877,6.725-6.877c1.576,0,3.078,0.513,4.293,1.52l-1.063,1.69
                    c-0.817-0.684-2.09-1.121-3.153-1.121c-2.564,0-4.256,2.033-4.256,4.673C94.918,85.735,96.646,88.053,99.098,88.053z"/>
                <path fill="#002776" d="M110.385,88.053c1.92,0,2.926-1.254,2.945-3.059l0.076-8.264h2.432l-0.076,8.396
                    c-0.057,3.23-2.279,5.016-5.414,5.016c-3.115,0-5.301-1.729-5.301-5.148c0-2.754,0.057-5.509,0.076-8.264h2.432
                    c-0.02,2.812-0.076,5.585-0.076,8.396C107.479,86.97,108.771,88.053,110.385,88.053z"/>
                <path fill="#002776" d="M126.395,89.877h-7.58l0.114-13.146h2.432l-0.114,11.056h5.148V89.877z"/>
                <path fill="#002776" d="M129.422,78.821h-3.686l0.02-2.09h9.745l-0.019,2.09h-3.629l-0.096,11.056h-2.432L129.422,78.821z"/>
                <path fill="#002776" d="M140.907,84.425l-4.351-6.706l2.223-1.254l3.438,5.623l3.571-5.623l2.146,1.235l-4.482,6.649
                    l-0.076,5.528h-2.546L140.907,84.425z"/>
                <path fill="#002776" d="M154.188,83.304c0-3.837,3.134-6.839,7.048-6.839c4.256,0,7.048,3.001,7.048,6.839
                    c0,3.838-3.059,6.839-7.048,6.839S154.188,87.312,154.188,83.304z M156.734,83.304c0,2.869,1.785,4.863,4.502,4.863
                    s4.502-2.26,4.502-4.863c0-2.792-1.785-4.863-4.502-4.863C159.033,78.44,156.734,80.264,156.734,83.304z"/>
                <path fill="#002776" d="M170.718,76.731h7.276l-0.02,2.09h-4.825l-0.019,3.381h4.787l-0.02,2.09h-4.806l-0.019,5.585h-2.489
                    L170.718,76.731z"/>
                <path fill="#002776" d="M71.883,98.731h2.432l-0.113,13.146H71.77L71.883,98.731z"/>
                <path fill="#002776" d="M77.348,99.149l2.26-0.684l6.137,10.068h0.038l-0.152-9.802h2.432l-0.114,12.728l-2.45,0.684
                    l-5.983-10.012l-0.039,0.038l0.19,9.708h-2.432L77.348,99.149z"/>
                <path fill="#002776" d="M91.181,98.731h7.276l-0.02,2.09h-4.825l-0.019,3.381h4.787l-0.02,2.09h-4.806l-0.019,5.585h-2.489
                    L91.181,98.731z"/>
                <path fill="#002776" d="M99.959,105.304c0-3.837,3.135-6.839,7.048-6.839c4.255,0,7.048,3.001,7.048,6.839
                    c0,3.838-3.059,6.839-7.048,6.839S99.959,109.312,99.959,105.304z M102.504,105.304c0,2.869,1.786,4.863,4.503,4.863
                    s4.503-2.26,4.503-4.863c0-2.792-1.786-4.863-4.503-4.863C104.803,100.44,102.504,102.264,102.504,105.304z"/>
                <path fill="#002776" d="M119.623,106.615h-0.76l-0.02,5.262h-2.488l0.133-13.146h4.16c3.191,0,4.465,1.729,4.465,3.799
                    c0,1.672-1.007,2.869-2.546,3.419l3.743,4.901l-2.166,1.292l-3.648-5.072C120.287,106.767,119.984,106.615,119.623,106.615z
                     M120.402,104.639c0.702,0,2.165-0.304,2.165-2.033c0-1.273-0.987-1.9-2.223-1.9h-1.405l-0.039,3.933H120.402z"/>
                <path fill="#002776" d="M129.927,98.731h2.489l3.191,10.505h0.037l3.648-10.505h2.488l1.938,13.146l-2.47,0.266l-0.987-10.373
                    h-0.039l-3.343,10.106h-2.508l-3.021-10.106h-0.038l-1.368,10.373l-2.336-0.266L129.927,98.731z"/>
                <path fill="#002776" d="M147.412,112.143l-2.261-0.684l5.054-12.728h2.241l4.692,12.728l-2.375,0.684l-1.291-3.762h-4.578
                    L147.412,112.143z M151.287,101.276h-0.037l-1.653,5.129h3.211L151.287,101.276z"/>
                <path fill="#002776" d="M160.213,100.821h-3.686l0.019-2.09h9.745l-0.019,2.09h-3.628l-0.096,11.056h-2.432L160.213,100.821z"/>
                <path fill="#002776" d="M168.033,98.731h2.432l-0.114,13.146h-2.432L168.033,98.731z"/>
                <path fill="#002776" d="M179.707,110.053c1.691,0,2.508-0.399,3.306-0.855l0.969,1.672c-1.216,0.855-2.679,1.273-4.179,1.273
                    c-3.914,0-6.82-2.869-6.82-6.801c0-4.046,2.83-6.877,6.725-6.877c1.576,0,3.078,0.513,4.293,1.52l-1.063,1.69
                    c-0.817-0.684-2.09-1.121-3.153-1.121c-2.564,0-4.256,2.033-4.256,4.673C175.527,107.735,177.256,110.053,179.707,110.053z"/>
                <path fill="#002776" d="M188.873,112.143c-1.291,0-2.45-0.342-3.571-1.007l0.95-1.862c0.607,0.437,1.576,0.893,2.317,0.893
                    c1.368,0,2.108-0.835,2.108-1.899c0-2.603-5.395-1.52-5.395-5.984c0-2.146,1.748-3.818,4.389-3.818
                    c1.311,0,2.564,0.437,3.704,1.102l-1.026,1.748c-0.816-0.437-1.52-0.874-2.488-0.874c-1.121,0-2.146,0.608-2.146,1.767
                    c0,2.564,5.509,1.767,5.509,5.965C193.224,110.414,191.4,112.143,188.873,112.143z"/>
                <path fill="#002776" d="M73.131,123.498h1.336l3.135,8.759l3.375-8.759h1.395l1.649,10.379l-1.26,0.21l-1.319-8.879H81.41
                    l-3.225,8.669h-1.229l-3.015-8.669h-0.03l-1.425,8.879l-1.245-0.21L73.131,123.498z"/>
                <path fill="#002776" d="M91.198,133.187c0.255,0,0.435-0.12,0.63-0.255l0.33,0.615c-0.42,0.345-0.87,0.54-1.395,0.54
                    c-0.676,0-1.051-0.6-1.11-1.245c-0.585,0.705-1.29,1.245-2.25,1.245c-1.319,0-2.159-0.9-2.159-2.16
                    c0-2.13,2.729-2.595,4.364-2.67c0.015-0.315,0.03-0.63,0.03-0.945c0-0.645-0.346-1.125-1.141-1.125
                    c-0.584,0-1.095,0.195-2.16,1.035l-0.494-0.78c1.484-0.96,1.994-1.245,3.06-1.245c1.26,0,1.875,0.735,1.875,1.89
                    c0,1.425-0.12,2.715-0.12,4.035C90.658,132.662,90.733,133.187,91.198,133.187z M87.778,133.187c0.735,0,1.306-0.51,1.771-1.095
                    l0.06-2.115c-2.085,0.285-3.165,0.66-3.165,1.935C86.443,132.752,86.938,133.187,87.778,133.187z"/>
                <path fill="#002776" d="M95.323,134.087c-0.886,0-1.665-0.3-2.34-0.735l0.51-0.795c0.42,0.285,1.005,0.63,1.649,0.63
                    c0.66,0,1.455-0.36,1.455-1.2c0-1.86-3.465-1.05-3.465-3.555c0-1.41,1.155-2.235,2.521-2.235c0.84,0,1.62,0.255,2.175,0.63
                    l-0.555,0.765c-0.436-0.24-0.9-0.495-1.426-0.495c-0.885,0-1.515,0.345-1.515,1.245c0,1.605,3.465,0.945,3.465,3.48
                    C97.798,133.262,96.553,134.087,95.323,134.087z"/>
                <path fill="#002776" d="M104.893,133.187c0.256,0,0.436-0.12,0.631-0.255l0.33,0.615c-0.42,0.345-0.871,0.54-1.396,0.54
                    c-0.675,0-1.05-0.6-1.11-1.245c-0.584,0.705-1.289,1.245-2.25,1.245c-1.319,0-2.159-0.9-2.159-2.16
                    c0-2.13,2.729-2.595,4.364-2.67c0.016-0.315,0.03-0.63,0.03-0.945c0-0.645-0.345-1.125-1.14-1.125
                    c-0.585,0-1.096,0.195-2.16,1.035l-0.495-0.78c1.485-0.96,1.995-1.245,3.06-1.245c1.261,0,1.875,0.735,1.875,1.89
                    c0,1.425-0.119,2.715-0.119,4.035C104.354,132.662,104.428,133.187,104.893,133.187z M101.473,133.187
                    c0.735,0,1.306-0.51,1.771-1.095l0.06-2.115c-2.084,0.285-3.164,0.66-3.164,1.935
                    C100.139,132.752,100.633,133.187,101.473,133.187z"/>
                <path fill="#002776" d="M110.193,127.367c-0.494,0-1.289,0.405-1.935,1.605l-0.06,4.905h-1.2l0.06-7.47h1.23l-0.016,1.455
                    l0.03,0.03c0.24-0.66,1.005-1.695,2.069-1.695c0.24,0,0.451,0.03,0.646,0.105l-0.36,1.14
                    C110.539,127.397,110.359,127.367,110.193,127.367z"/>
                <path fill="#002776" d="M111.83,136.517c1.155,0,1.5-0.27,1.815-0.975l0.81-1.785l-2.774-7.2l1.29-0.36l2.07,6.075h0.029
                    l2.266-6.075l1.185,0.36l-3.33,8.25c-0.84,2.055-1.274,2.61-2.88,2.61h-0.48V136.517z"/>
                <path fill="#002776" d="M119.891,122.627h1.186l-0.061,7.38l3.84-3.975l0.795,0.78l-3.149,3.03l3.24,3.6l-0.945,0.765
                    l-3.78-4.17l-0.045,3.84h-1.17L119.891,122.627z"/>
                <path fill="#002776" d="M135.761,133.007c1.5,0,2.82-0.765,2.82-3.12l0.045-6.39h1.29l-0.045,6.464
                    c-0.045,3.33-2.176,4.125-4.2,4.125c-2.235,0-4.034-0.99-4.034-4.155c0-0.84,0.015-1.77,0.029-2.835l0.03-3.6h1.29l-0.03,3.825
                    c-0.015,0.975-0.03,1.965-0.03,2.925C132.926,132.152,133.916,133.007,135.761,133.007z"/>
                <path fill="#002776" d="M145.635,127.277c-0.779,0-1.469,0.435-2.234,1.38l-0.061,5.22h-1.199l0.06-7.47h1.2l-0.045,1.2h0.029
                    c0.646-0.9,1.636-1.41,2.535-1.41c1.725,0,2.28,0.885,2.28,2.265c0,0.585-0.015,1.125-0.015,1.709l-0.03,3.705h-1.2l0.03-3.36
                    c0-0.66,0.015-1.32,0.015-2.055C147,127.637,146.475,127.277,145.635,127.277z"/>
                <path fill="#002776" d="M150.224,123.498h1.29v1.35h-1.29V123.498z M150.283,126.407h1.2l-0.06,7.47h-1.2L150.283,126.407z"/>
                <path fill="#002776" d="M159.649,126.557l-3.015,7.32h-1.17l-2.745-7.35l1.245-0.33l2.115,6.24h0.029l2.34-6.24L159.649,126.557
                    z"/>
                <path fill="#002776" d="M161.461,129.977v0.255c0,1.56,0.586,2.955,2.115,2.955c0.855,0,1.484-0.495,2.13-1.08l0.585,0.645
                    c-0.766,0.765-1.725,1.335-2.85,1.335c-2.085,0-3.27-1.485-3.27-3.945c0-2.04,1.424-3.945,3.42-3.945
                    c2.01,0,2.879,1.53,2.879,3.54v0.24H161.461z M165.271,129.167c0-1.065-0.45-2.07-1.666-2.07c-1.139,0-1.829,1.05-2.039,2.07
                    H165.271z"/>
                <path fill="#002776" d="M171.273,127.367c-0.496,0-1.291,0.405-1.936,1.605l-0.061,4.905h-1.199l0.06-7.47h1.229l-0.014,1.455
                    l0.029,0.03c0.24-0.66,1.005-1.695,2.07-1.695c0.24,0,0.449,0.03,0.645,0.105l-0.359,1.14
                    C171.617,127.397,171.438,127.367,171.273,127.367z"/>
                <path fill="#002776" d="M174.865,134.087c-0.885,0-1.665-0.3-2.34-0.735l0.51-0.795c0.42,0.285,1.005,0.63,1.65,0.63
                    c0.66,0,1.455-0.36,1.455-1.2c0-1.86-3.465-1.05-3.465-3.555c0-1.41,1.154-2.235,2.52-2.235c0.84,0,1.619,0.255,2.175,0.63
                    l-0.556,0.765c-0.435-0.24-0.899-0.495-1.424-0.495c-0.885,0-1.516,0.345-1.516,1.245c0,1.605,3.465,0.945,3.465,3.48
                    C177.34,133.262,176.096,134.087,174.865,134.087z"/>
                <path fill="#002776" d="M178.801,123.498h1.29v1.35h-1.29V123.498z M178.861,126.407h1.199l-0.061,7.47h-1.199L178.861,126.407z
                    "/>
                <path fill="#002776" d="M181.319,126.407h1.29l0.029-2.76h1.201l-0.031,2.76h2.041v0.9h-2.056l-0.03,3.06
                    c-0.015,0.42-0.015,0.78-0.015,1.065v0.705c0,0.615,0.165,0.96,0.69,0.96c0.404,0,0.914-0.255,1.199-0.435l0.391,0.78
                    c-0.495,0.345-1.215,0.645-1.875,0.645c-1.155,0-1.605-0.705-1.605-1.905v-0.87c0-0.33,0-0.75,0.016-1.275l0.029-2.73h-1.274
                    V126.407z"/>
                <path fill="#002776" d="M186.811,136.517c1.154,0,1.5-0.27,1.814-0.975l0.811-1.785l-2.775-7.2l1.291-0.36l2.069,6.075h0.03
                    l2.265-6.075l1.185,0.36l-3.33,8.25c-0.84,2.055-1.274,2.61-2.879,2.61h-0.48V136.517z"/>
            </g>
        </g>
    </g>
</g>
</svg>
